<?xml version="1.0" standalone="no"?>
<!DOCTYPE svg PUBLIC "-//W3C//DTD SVG 20010904//EN"
 "http://www.w3.org/TR/2001/REC-SVG-20010904/DTD/svg10.dtd">
<svg version="1.0" xmlns="http://www.w3.org/2000/svg"
 width="1453.000000pt" height="1000.000000pt" viewBox="0 0 1453.000000 1000.000000"
 preserveAspectRatio="xMidYMid meet">
<metadata>
Created by potrace 1.16, written by Peter Selinger 2001-2019
</metadata>
<g transform="translate(0.000000,1000.000000) scale(0.100000,-0.100000)"
fill="#000000" stroke="none">
<path d="M0 6278 l0 -3723 90 3 c54 3 90 0 90 -6 0 -13 -50 -22 -121 -22 l-59
0 0 -1234 0 -1234 135 5 c116 5 138 4 160 -11 19 -12 24 -23 20 -37 -6 -19 27
-19 3722 -17 2050 2 3737 7 3748 11 16 7 17 7 5 -2 -11 -8 668 -11 2395 -10
1326 0 2406 2 2400 4 -9 4 -87 15 -465 64 -85 12 -204 28 -265 36 -60 8 -213
29 -340 45 -126 17 -259 34 -295 40 -36 5 -184 26 -330 45 -288 39 -656 89
-982 135 l-208 30 -35 -24 c-20 -14 -58 -29 -86 -35 -74 -16 -233 -13 -325 6
l-81 16 -244 -61 c-134 -34 -358 -91 -497 -127 -139 -36 -258 -65 -265 -64
-14 1 114 36 418 114 383 99 546 143 552 149 3 3 -6 15 -20 27 -16 12 -27 30
-27 44 0 21 -6 24 -42 28 -41 4 -40 4 7 4 55 0 132 21 118 33 -4 4 -45 18 -90
30 -46 13 -81 26 -78 28 2 2 50 -9 107 -26 91 -26 114 -29 196 -24 50 2 92 9
92 14 0 5 -11 55 -25 111 -13 56 -37 156 -53 222 l-28 120 -64 7 c-88 10 -190
47 -190 69 0 9 6 21 13 27 20 16 113 32 186 32 43 0 72 5 78 13 6 6 38 64 71
127 33 63 71 134 84 157 12 23 21 44 18 46 -3 3 -23 8 -45 11 -91 14 -92 14
-91 50 1 31 3 32 39 32 20 -1 37 2 37 7 0 4 3 6 8 6 25 -4 21 6 -18 48 l-45
48 45 -40 c24 -22 46 -43 48 -47 2 -5 29 -8 60 -8 49 0 59 4 80 27 34 40 288
297 309 314 17 13 -60 -70 -231 -248 -43 -44 -79 -85 -79 -89 -1 -4 28 -15 66
-25 69 -17 104 -37 90 -49 -11 -11 -105 -39 -123 -38 -44 3 -130 -3 -130 -10
0 -4 -36 -78 -80 -162 -44 -85 -80 -158 -80 -161 0 -4 27 -12 61 -18 79 -14
133 -40 137 -67 3 -18 -6 -24 -56 -38 -32 -9 -79 -16 -105 -16 -25 0 -48 -4
-51 -8 -4 -7 100 -449 108 -459 1 -1 36 -9 79 -18 l77 -16 223 56 c122 31 371
94 553 141 183 46 335 84 338 84 15 0 4 19 -14 25 -11 4 -26 18 -34 33 -15 28
1 25 -466 92 -80 12 -149 23 -155 26 -15 6 112 -5 170 -16 28 -5 141 -21 252
-36 189 -25 205 -26 250 -12 l48 15 -474 237 c-260 131 -471 239 -469 241 3 3
78 -32 169 -76 198 -98 460 -226 666 -324 l151 -73 107 -3 107 -3 141 106 c78
58 213 157 300 222 86 64 157 118 157 121 0 2 -26 11 -57 20 -73 21 -102 40
-85 58 7 6 27 17 45 23 l32 12 -29 11 c-16 6 -27 14 -24 16 3 3 26 -4 52 -15
31 -14 62 -20 94 -18 l47 3 7 85 c4 47 11 147 15 222 l8 137 -50 10 c-111 21
-154 36 -141 48 3 3 12 0 21 -7 12 -10 15 -10 15 4 0 11 9 16 28 17 71 3 173
-3 234 -13 56 -9 65 -13 51 -23 -13 -10 -11 -11 15 -7 18 2 32 0 32 -6 0 -12
-66 -26 -80 -17 -6 3 -10 2 -10 -2 0 -5 -18 -7 -41 -5 -22 3 -45 0 -49 -4 -5
-5 -10 -106 -11 -224 l-2 -215 81 -17 c79 -16 142 -41 142 -56 0 -4 -9 -15
-20 -25 -17 -14 -42 -17 -153 -17 l-132 -1 -195 -150 c-107 -82 -239 -184
-293 -225 l-99 -76 58 -20 c32 -11 67 -26 78 -34 16 -11 75 -14 296 -15 151
-1 410 -5 575 -9 240 -6 186 -7 -264 -5 l-564 3 -33 -33 -33 -34 67 -25 c37
-14 117 -44 177 -67 61 -23 205 -77 320 -121 116 -44 248 -95 295 -113 86 -32
300 -114 814 -309 l279 -106 132 0 132 0 70 97 c39 54 76 97 83 95 6 -1 9 2 5
8 -4 6 15 41 41 78 62 88 85 113 97 105 6 -4 8 0 4 9 -7 19 20 61 34 52 5 -3
9 -2 8 3 -3 20 2 27 12 13 8 -12 9 -10 4 8 -4 12 -2 22 4 22 24 0 18 -21 -22
-76 -24 -32 -59 -84 -79 -114 -20 -30 -45 -64 -55 -76 -10 -11 -23 -29 -30
-40 -6 -10 -16 -18 -23 -16 -6 1 -9 -2 -5 -8 3 -5 -14 -38 -38 -72 -24 -35
-47 -69 -51 -75 -6 -10 104 -13 533 -13 l541 0 0 1285 0 1285 -69 0 c-81 0
-131 9 -131 23 0 6 35 8 100 4 l100 -5 0 3704 0 3704 -7265 0 -7265 0 0 -3722z
m3691 -2629 c5 -8 22 -48 40 -89 17 -41 39 -84 49 -94 19 -19 154 -68 240 -87
25 -5 105 -20 178 -33 73 -13 135 -26 139 -29 8 -9 -4 -12 -151 -38 -88 -16
-122 -25 -105 -30 15 -4 -4 -8 -56 -13 -44 -4 -87 -11 -96 -16 -9 -5 -33 -12
-53 -15 -20 -4 -34 -11 -31 -15 3 -5 -5 -6 -17 -2 -14 3 -19 1 -14 -6 3 -6 -2
-13 -11 -15 -10 -3 16 -3 57 -1 86 5 82 -1 -14 -19 -73 -13 -86 -28 -34 -38
l33 -6 -40 -2 c-48 -2 -62 -9 -67 -36 -2 -13 5 -23 20 -30 32 -14 27 -23 -18
-35 -43 -12 -46 -16 -29 -54 12 -25 43 -36 102 -36 52 0 17 -18 -58 -30 -61
-10 -79 -18 -145 -67 l-75 -56 53 53 c56 57 55 67 -5 69 -39 2 -25 17 27 30
47 12 50 14 44 39 -10 40 -9 40 -81 48 -59 6 -65 8 -48 20 10 8 29 14 41 14
32 0 38 15 18 46 -17 24 -22 26 -79 22 -52 -3 -61 -1 -62 13 -1 12 9 20 33 26
l35 8 -78 47 -78 46 -65 -8 c-69 -8 -90 -5 -46 6 37 9 32 22 -11 29 -172 29
-285 54 -247 55 14 0 173 29 219 39 22 5 65 14 95 20 30 6 99 26 154 43 95 31
99 34 130 83 18 27 43 76 55 108 23 56 36 66 52 36z m9937 -1858 l36 -18 -24
-13 c-27 -14 -171 -8 -232 10 -40 11 -50 35 -20 44 38 11 204 -5 240 -23z
m-10363 -150 c44 -9 37 -33 -15 -49 -81 -24 -240 -19 -240 8 0 33 167 60 255
41z m-1612 -170 c29 -29 -72 -60 -199 -62 -106 -2 -142 15 -91 43 62 34 262
47 290 19z m5653 -3 c15 -15 15 -17 -7 -31 -55 -35 -218 -33 -261 3 l-23 19
35 15 c49 23 232 18 256 -6z m-1870 -109 c55 -14 60 -41 12 -59 -50 -18 -177
-24 -225 -11 -133 36 75 104 213 70z m-1853 -274 c31 -13 20 -45 -20 -62 -49
-21 -241 -30 -271 -14 -73 39 55 92 208 86 36 -2 73 -6 83 -10z m-3127 -10
c19 -15 19 -15 -1 -30 -37 -29 -127 -48 -232 -49 -108 -1 -138 9 -114 38 12
14 83 39 141 49 65 11 187 7 206 -8z m7364 -93 c83 -41 23 -84 -120 -86 -122
-1 -201 31 -170 69 19 23 67 33 165 34 67 1 99 -3 125 -17z m-1866 -177 c58 0
106 -3 106 -7 0 -5 9 -8 20 -8 13 0 18 -5 14 -15 -4 -9 0 -15 7 -16 8 0 5 -4
-6 -9 -18 -8 -18 -9 -2 -9 10 -1 15 -5 12 -11 -3 -5 0 -10 7 -11 10 0 10 -2 1
-6 -19 -7 -16 -23 5 -23 10 -1 4 -6 -14 -14 -45 -20 -48 -31 -17 -55 26 -19
24 -19 -24 3 -46 20 -60 22 -105 14 -62 -10 -176 -1 -227 18 -25 9 -30 13 -16
14 15 1 16 3 5 7 -26 11 -42 31 -27 36 9 4 8 8 -3 17 -13 10 -13 11 3 6 15 -5
21 4 19 25 -1 4 10 10 23 13 13 3 36 11 50 16 l27 10 -21 34 c-30 49 -26 51
18 8 l38 -37 107 0z m8089 20 c67 -14 137 -48 137 -65 0 -20 -49 -35 -127 -40
-44 -3 -79 -2 -77 1 2 4 -18 9 -44 12 -70 8 -142 42 -142 66 0 11 8 25 18 30
25 15 157 13 235 -4z"/>
<path d="M10196 621 c-303 -75 -552 -143 -554 -149 -2 -7 1 -12 7 -12 5 0 20
-11 33 -24 26 -28 -50 -15 818 -131 267 -35 537 -71 600 -80 63 -9 230 -31
370 -51 140 -19 352 -48 470 -64 118 -16 247 -34 285 -40 420 -62 503 -70 681
-68 l179 3 -165 62 c-91 34 -208 78 -260 98 -52 20 -106 41 -120 45 -14 5 -47
17 -75 28 -27 10 -311 117 -630 236 -319 120 -607 228 -640 241 -52 20 -72 23
-145 18 -54 -3 -120 1 -182 11 -54 9 -103 16 -110 15 -7 0 -260 -62 -562 -138z"/>
</g>
</svg>
